<?xml version="1.0" standalone="no"?><!DOCTYPE svg PUBLIC "-//W3C//DTD SVG 1.1//EN" "http://www.w3.org/Graphics/SVG/1.1/DTD/svg11.dtd"><svg t="1635672961361" class="icon" viewBox="0 0 1024 1024" version="1.1" xmlns="http://www.w3.org/2000/svg" p-id="1348" xmlns:xlink="http://www.w3.org/1999/xlink" width="128" height="128"><defs><style type="text/css"></style></defs><path d="M857.4272 644.2944a32.0384 32.0384 0 0 0 32.1344-31.9424V318.912l-9.6768-9.3952c-23.0016-22.336-65.0304-64.4352-109.5296-109.0048-50.4832-50.56-102.688-102.848-128.448-127.5648L632.5696 64H275.84A141.184 141.184 0 0 0 134.4 204.5888v614.816A141.1904 141.1904 0 0 0 275.84 960h472.32a141.184 141.184 0 0 0 141.44-140.608v-34.56a32.1344 32.1344 0 0 0-64.2624 0v34.56a77.0368 77.0368 0 0 1-77.1776 76.7296H275.84a77.0304 77.0304 0 0 1-77.1712-76.7168V204.5888A77.0304 77.0304 0 0 1 275.84 127.872h296.1344v175.68a68.4416 68.4416 0 0 0 68.5696 68.16h184.7552v240.64a32.0384 32.0384 0 0 0 32.128 31.9424zM636.2432 303.552V157.1328c25.6768 25.4592 57.408 57.2416 88.5056 88.384 22.0544 22.0928 43.4112 43.4816 62.2912 62.304h-146.496a4.2944 4.2944 0 0 1-4.3008-4.2688z" fill="#FB3F50" p-id="1349"></path><path d="M497.6064 517.9648H320.2816a31.8144 31.8144 0 1 1 0-63.6224h177.3248a31.8144 31.8144 0 1 1 0 63.6224z m174.08 141.024H320.2816a31.8144 31.8144 0 1 1 0-63.616h351.424a31.8144 31.8144 0 1 1 0 63.616z m0 141.0304H320.2816a31.8144 31.8144 0 1 1 0-63.6224h351.424a31.8144 31.8144 0 1 1 0 63.6032z" fill="#FFCA1E" p-id="1350"></path></svg>