<?xml version="1.0" standalone="no"?><!DOCTYPE svg PUBLIC "-//W3C//DTD SVG 1.1//EN" "http://www.w3.org/Graphics/SVG/1.1/DTD/svg11.dtd"><svg t="1635671321341" class="icon" viewBox="0 0 1024 1024" version="1.1" xmlns="http://www.w3.org/2000/svg" p-id="1211" xmlns:xlink="http://www.w3.org/1999/xlink" width="128" height="128"><defs><style type="text/css"></style></defs><path d="M967.111111 1024 739.555556 1024C708.152889 1024 682.666667 998.513778 682.666667 967.111111L682.666667 739.555556C682.666667 708.152889 708.152889 682.666667 739.555556 682.666667L824.888889 682.666667 824.888889 526.222222 199.566222 526.222222 199.566222 682.666667 284.444444 682.666667C315.847111 682.666667 341.333333 708.152889 341.333333 739.555556L341.333333 967.111111C341.333333 998.513778 315.847111 1024 284.444444 1024L56.888889 1024C25.486222 1024 0 998.513778 0 967.111111L0 739.555556C0 708.152889 25.486222 682.666667 56.888889 682.666667L142.677333 682.666667 142.677333 498.915556 142.677333 497.777778 142.677333 496.64C142.677333 481.564444 154.908444 469.333333 169.984 469.333333L483.555556 469.333333 483.555556 341.333333 398.222222 341.333333C366.819556 341.333333 341.333333 315.847111 341.333333 284.444444L341.333333 56.888889C341.333333 25.486222 366.819556 0 398.222222 0L625.777778 0C657.180444 0 682.666667 25.486222 682.666667 56.888889L682.666667 284.444444C682.666667 315.847111 657.180444 341.333333 625.777778 341.333333L540.444444 341.333333 540.444444 469.333333 854.471111 469.333333C869.546667 469.333333 881.777778 481.564444 881.777778 496.64L881.777778 497.777778 881.777778 498.915556 881.777778 682.666667 967.111111 682.666667C998.513778 682.666667 1024 708.152889 1024 739.555556L1024 967.111111C1024 998.513778 998.513778 1024 967.111111 1024Z" p-id="1212"></path></svg>