<?xml version="1.0" standalone="no"?><!DOCTYPE svg PUBLIC "-//W3C//DTD SVG 1.1//EN" "http://www.w3.org/Graphics/SVG/1.1/DTD/svg11.dtd"><svg t="1635671308547" class="icon" viewBox="0 0 1024 1024" version="1.1" xmlns="http://www.w3.org/2000/svg" p-id="1073" xmlns:xlink="http://www.w3.org/1999/xlink" width="128" height="128"><defs><style type="text/css"></style></defs><path d="M788.48 629.418667c0-17.066667-5.802667-31.744-17.749333-44.714667L421.205333 235.861333c-12.288-12.288-29.354667-22.869333-49.834667-31.744-21.162667-8.874667-39.936-12.970667-57.002667-12.970667L110.933333 191.146667c-17.066667 0-31.744 6.485333-44.032 18.773333-12.288 12.288-18.773333 26.965333-18.773333 44.032l0 202.752c0 17.066667 4.096 36.522667 12.970667 57.002667 8.874667 21.162667 18.773333 37.546667 31.744 49.834667l349.525333 349.525333c12.288 12.288 26.965333 17.749333 44.032 17.749333 17.066667 0 31.744-5.802667 44.714667-17.749333l239.616-239.616C781.994667 661.162667 788.48 646.485333 788.48 629.418667L788.48 629.418667 788.48 629.418667zM248.490667 392.192c-12.288 12.288-26.965333 18.090667-44.032 18.090667-17.066667 0-31.744-5.802667-44.032-18.090667-12.288-12.288-18.090667-26.965333-18.090667-44.032 0-17.066667 5.802667-31.744 18.090667-44.032 12.288-12.288 26.965333-18.090667 44.032-18.090667 17.066667 0 31.744 5.802667 44.032 18.090667C260.778667 316.416 266.24 331.093333 266.24 348.16 267.264 365.568 260.778667 379.904 248.490667 392.192L248.490667 392.192 248.490667 392.192zM958.122667 584.362667 608.597333 235.861333c-12.288-12.288-29.354667-22.869333-49.834667-31.744C537.6 195.242667 518.826667 191.146667 501.76 191.146667l-109.909333 0c17.066667 0 36.522667 4.096 57.002667 12.970667 21.162667 8.874667 37.546667 18.773333 49.834667 31.744l349.525333 348.501333c12.288 12.970667 18.090667 27.648 18.090667 44.714667s-5.802667 31.744-18.090667 44.032l-229.034667 229.717333c9.898667 9.898667 18.773333 17.066667 25.941333 21.845333 7.168 4.778667 17.066667 6.485333 28.672 6.485333 17.066667 0 31.744-5.802667 44.714667-18.090667l239.616-240.298667c12.288-12.288 17.749333-26.965333 17.749333-44.032S970.069333 597.674667 958.122667 584.362667L958.122667 584.362667 958.122667 584.362667zM958.122667 584.362667" p-id="1074"></path></svg>