<?xml version="1.0" standalone="no"?><!DOCTYPE svg PUBLIC "-//W3C//DTD SVG 1.1//EN" "http://www.w3.org/Graphics/SVG/1.1/DTD/svg11.dtd"><svg t="1635671434314" class="icon" viewBox="0 0 1024 1024" version="1.1" xmlns="http://www.w3.org/2000/svg" p-id="1487" xmlns:xlink="http://www.w3.org/1999/xlink" width="128" height="128"><defs><style type="text/css"></style></defs><path d="M219.428571 658.285714q0-30.285714-21.428571-51.714286t-51.714286-21.428571-51.714286 21.428571-21.428571 51.714286 21.428571 51.714286 51.714286 21.428571 51.714286-21.428571 21.428571-51.714286zm109.714286-256q0-30.285714-21.428571-51.714286t-51.714286-21.428571-51.714286 21.428571-21.428571 51.714286 21.428571 51.714286 51.714286 21.428571 51.714286-21.428571 21.428571-51.714286zm244.571429 274.857143l57.714286-218.285714q3.428571-14.857143-4.285714-27.714286t-22-16.857143-27.428571 3.714286-17.142857 22.571429l-57.714286 218.285714q-34.285714 2.857143-61.142857 24.857143t-36 56.285714q-11.428571 44 11.428571 83.428571t66.857143 50.857143 83.428571-11.428571 50.857143-66.857143q9.142857-34.285714-3.428571-66.857143t-41.142857-52zm377.142857-18.857143q0-30.285714-21.428571-51.714286t-51.714286-21.428571-51.714286 21.428571-21.428571 51.714286 21.428571 51.714286 51.714286 21.428571 51.714286-21.428571 21.428571-51.714286zm-365.714286-365.714286q0-30.285714-21.428571-51.714286t-51.714286-21.428571-51.714286 21.428571-21.428571 51.714286 21.428571 51.714286 51.714286 21.428571 51.714286-21.428571 21.428571-51.714286zm256 109.714286q0-30.285714-21.428571-51.714286t-51.714286-21.428571-51.714286 21.428571-21.428571 51.714286 21.428571 51.714286 51.714286 21.428571 51.714286-21.428571 21.428571-51.714286zm182.857143 256q0 149.142857-80.571429 276-10.857143 16.571429-30.857143 16.571429l-801.142857 0q-20 0-30.857143-16.571429-80.571429-126.285714-80.571429-276 0-104 40.571429-198.857143t109.142857-163.428571 163.428571-109.142857 198.857143-40.571429 198.857143 40.571429 163.428571 109.142857 109.142857 163.428571 40.571429 198.857143z" p-id="1488"></path></svg>