<?xml version="1.0" standalone="no"?><!DOCTYPE svg PUBLIC "-//W3C//DTD SVG 1.1//EN" "http://www.w3.org/Graphics/SVG/1.1/DTD/svg11.dtd"><svg t="1635687182658" class="icon" viewBox="0 0 1049 1024" version="1.1" xmlns="http://www.w3.org/2000/svg" p-id="1264" xmlns:xlink="http://www.w3.org/1999/xlink" width="131.125" height="128"><defs><style type="text/css"></style></defs><path d="M524.979332 0C234.676191 0 0 234.676191 0 524.979332c0 232.06867799 150.366597 428.50134201 358.967656 498.035028 26.075132 5.21502601 35.63601401-11.299224 35.63601401-25.205961 0-12.168395-0.869171-53.888607-0.86917101-97.34716101-146.020741 31.290159-176.441729-62.58031799-176.44172899-62.58031799-23.467619-60.841976-58.23446201-76.487055-58.23446301-76.487055-47.804409-32.15932999 3.476684-32.15932999 3.476685-32.15933001 53.019436 3.476684 80.83290999 53.888607 80.83290999 53.88860702 46.93523799 79.96373901 122.55312201 57.36529101 152.97411001 43.45855399 4.34585499-33.897672 18.252593-57.36529101 33.02850101-70.402857-116.468925-12.16839502-239.022047-57.365291-239.022047-259.012982 0-57.365291 20.86010599-104.300529 53.88860699-140.80571499-5.21502601-13.03756601-23.467619-66.926173 5.21502699-139.067372 0 0 44.327725-13.906737 144.28239901 53.88860699 41.720212-11.299224 86.917108-17.38342199 131.244833-17.38342199s89.524621 6.08419799 131.244833 17.38342199C756.178839 203.386032 800.506564 217.29277001 800.506564 217.29277001c28.68264599 72.1412 10.430053 126.02980601 5.21502601 139.067372 33.897672 36.505185 53.888607 83.44042399 53.88860699 140.80571499 0 201.64769001-122.55312201 245.975415-239.891218 259.012982 19.121764 16.514251 35.63601401 47.804409 35.63601499 97.347161 0 70.402857-0.869171 126.89897801-0.869172 144.282399 0 13.906737 9.56088198 30.420988 35.63601501 25.205961 208.601059-69.53368601 358.967656-265.96634999 358.967655-498.035028C1049.958663 234.676191 814.413301 0 524.979332 0z" fill="#000000" p-id="1265"></path><path d="M199.040177 753.57132601c-0.869171 2.60751301-5.21502601 3.476684-8.69171099 1.73834199s-6.08419799-5.21502601-4.34585501-7.82254c0.869171-2.60751301 5.21502601-3.476684 8.69171101-1.73834201s5.21502601 5.21502601 4.34585499 7.82254002z m-6.95336899-4.345856M219.900283 777.038945c-2.60751301 2.60751301-7.82254 0.869171-10.43005299-2.607514-3.476684-3.476684-4.34585499-8.69171099-1.73834201-11.299224 2.60751301-2.60751301 6.95336901-0.869171 10.430053 2.60751401 3.476684 4.34585499 4.34585499 9.56088199 1.738342 11.29922399z m-5.21502599-5.21502699M240.760389 807.459932c-3.476684 2.60751301-8.69171099 0-11.299224-4.345855-3.476684-4.34585499-3.476684-10.430053 0-12.16839501 3.476684-2.60751301 8.69171099 0 11.299224 4.34585501 3.476684 4.34585499 3.476684 9.56088199 0 12.168395z m0 0M269.44303401 837.01174899c-2.60751301 3.476684-8.69171099 2.60751301-13.90673701-1.73834199-4.34585499-4.34585499-6.08419799-10.430053-2.607513-13.037566 2.60751301-3.476684 8.69171099-2.60751301 13.906737 1.73834202 4.34585499 3.476684 5.21502601 9.56088198 2.60751301 13.03756599z m0 2e-8M308.555733 853.526c-0.869171 4.34585499-6.95336901 6.08419799-13.037566 4.345855-6.08419799-1.73834201-9.56088199-6.95336901-8.691711-10.43005299 0.869171-4.34585499 6.95336901-6.08419799 13.03756599-4.34585501 6.08419799 1.73834201 9.56088199 6.08419799 8.69171101 10.430053z m0 0M351.145116 857.002684c0 4.34585499-5.21502601 7.82254-11.299224 7.82254-6.08419799 0-11.299224-3.476684-11.29922399-7.82254s5.21502601-7.82254 11.29922399-7.82254c6.08419799 0 11.299224 3.476684 11.299224 7.82254z m0 0M391.12698601 850.04931499c0.869171 4.34585499-3.476684 8.69171099-9.56088201 9.56088201-6.08419799 0.869171-11.299224-1.73834201-12.168395-6.084197-0.869171-4.34585499 3.476684-8.69171099 9.56088099-9.56088201 6.08419799-0.869171 11.299224 1.73834201 12.168396 6.084197z m-2e-8 0" fill="#000000" p-id="1266"></path></svg>