<?xml version="1.0" standalone="no"?><!DOCTYPE svg PUBLIC "-//W3C//DTD SVG 1.1//EN" "http://www.w3.org/Graphics/SVG/1.1/DTD/svg11.dtd"><svg t="1635672925537" class="icon" viewBox="0 0 1068 1024" version="1.1" xmlns="http://www.w3.org/2000/svg" p-id="1073" xmlns:xlink="http://www.w3.org/1999/xlink" width="133.5" height="128"><defs><style type="text/css"></style></defs><path d="M858.125538 141.500812l-291.61846 257.581884c-104.417292-74.7074-115.955115-84.226103-223.256863-171.625108l-252.966755 210.276813c-30.286784 27.690774-58.266003 42.978388-90.28346 64.034914l0 120.281798c53.073983-12.403159 53.650874-12.403159 90.28346-46.728181 40.959269-38.363259 42.978388-37.209477 84.514549-70.092271 59.996676-47.016626 107.013302-99.225272 168.452206-140.761433 71.534499 37.786368 160.664176 130.088947 223.256863 171.913553l394.88197-326.520373 98.936827 107.301748c4.038238-377.575237 68.650043-312.963432-304.886956-312.963432 48.170408 70.669162 57.689112 79.322529 102.686619 137.300086l0 0zm-68.361597 274.600172l0 446.513725 171.625108 0 0-566.507078c-48.170408 25.383209-40.959269 14.710724-81.918539 55.381547-42.113052 42.113052-29.421447 48.458854-89.706569 64.611805l0 0zm-532.182056 103.26351l1.730673 342.96177c4.615129 0 4.903575 0 7.78803 0 69.803825 0.865337 81.053202 0.576891 162.106404 0.288446l0-360.845394c-121.43558-80.764757-48.458854-65.188696-171.625108 17.595179zm274.600172 343.250215l171.625108 0c0-201.335 31.440566-393.439742-55.381547-315.559442-145.088116 129.800502-90.860351 17.018288-113.935996 79.89942l-2.307564 235.660022 0 0zm-532.182056-137.300086l0 137.300086 171.625108 0 0-257.581884c-54.516211 14.710724-43.266834 19.037407-85.956777 51.34331-35.190358 26.248546-50.189527 45.285953-85.668331 68.938489l0 0z" fill="#1296db" p-id="1074"></path></svg>