<?xml version="1.0" standalone="no"?><!DOCTYPE svg PUBLIC "-//W3C//DTD SVG 1.1//EN" "http://www.w3.org/Graphics/SVG/1.1/DTD/svg11.dtd"><svg t="1635672945714" class="icon" viewBox="0 0 1024 1024" version="1.1" xmlns="http://www.w3.org/2000/svg" p-id="1207" xmlns:xlink="http://www.w3.org/1999/xlink" width="128" height="128"><defs><style type="text/css"></style></defs><path d="M496.7 438.34l1.19-1.41c0.41-0.49 0.8-1 1.2-1.49l0.28-0.4a38.1 38.1 0 0 0-2.67 3.3zM477.21 248.66l-1.41-1.19c-0.49-0.41-1-0.8-1.49-1.2l-0.4-0.28a41.47 41.47 0 0 0 3.3 2.67zM307 457.83c0.47 0.39 0.93 0.8 1.41 1.19l1.49 1.2 0.39 0.28a37.55 37.55 0 0 0-3.29-2.67zM287.53 268.15c-0.4 0.47-0.8 0.93-1.19 1.41s-0.8 1-1.2 1.49l-0.28 0.39a40.82 40.82 0 0 0 2.67-3.29zM228.71 607l-1.87 1.5 2.51-2-0.16 0.12zM603.87 655.36c-0.5-0.63-1-1.25-1.51-1.87 0.3 0.39 0.92 1.17 2 2.52l-0.13-0.17z" fill="#0071C3" p-id="1208"></path><path d="M669 644.51C630.76 584.34 574.31 538.79 508.05 513c-1.07-0.42-2.16-0.81-3.24-1.22 41.27-29.62 71.31-75.17 78.95-125.71a223.83 223.83 0 0 0 2.93-32.78c-0.16-39-11.86-78.75-34.63-110.65A201 201 0 0 0 457.38 170c-74.2-27.55-163.59-3.45-213.79 57.75C217 260.1 201.39 298.21 198.06 340c-3.06 39.18 6.94 80 27.27 113.51a198.35 198.35 0 0 0 53.78 58.23 317.56 317.56 0 0 0-73.25 38.2 344.63 344.63 0 0 0-77.17 75.16C86.38 681.3 64.12 752.48 65 822.69a309.08 309.08 0 0 0 2.45 34.67c1 8.25 2.66 15 8.77 21.17 5.19 5.19 13.71 9.1 21.17 8.77 7.74-0.35 15.77-2.89 21.17-8.77 5-5.42 9.73-13.5 8.76-21.17a306.86 306.86 0 0 1-0.32-74.49 260 260 0 0 1 37.48-104.25q5.67-9.23 12-18c1.14-1.6 2.31-3.18 3.48-4.76a0.1 0.1 0 0 0 0-0.05c2.07-2.59 4.15-5.18 6.3-7.71A298.38 298.38 0 0 1 217 616.83q3.93-3.47 8-6.78c0.63-0.52 1.27-1 1.9-1.53-1 0.8 0.64-0.56 1.87-1.5l0.31-0.26 2.06-1.61-1.73 1.38q8.85-6.62 18.16-12.57a299.19 299.19 0 0 1 41-21.83 300.42 300.42 0 0 1 67.69-18.44 305.09 305.09 0 0 1 71.85 0 300.79 300.79 0 0 1 67.79 18.51 300.23 300.23 0 0 1 36.36 19q9.22 5.67 18 12c1.59 1.15 3.18 2.31 4.75 3.49h0.05c2.6 2.07 5.18 4.15 7.71 6.29a298.48 298.48 0 0 1 31.26 30.64q3.45 3.93 6.78 8l1.52 1.89c-0.79-1 0.56 0.65 1.51 1.87l0.25 0.32c0.54 0.68 1.07 1.38 1.62 2.06-0.53-0.66-1-1.23-1.38-1.73q6.61 8.84 12.57 18.16a299.7 299.7 0 0 1 21.83 41 300.45 300.45 0 0 1 18.44 67.71 306.36 306.36 0 0 1-0.33 74.49c-0.89 7.06 4 16.39 8.77 21.17 5.19 5.19 13.71 9.1 21.17 8.77 7.74-0.35 15.77-2.89 21.17-8.77 5.73-6.25 7.71-12.82 8.76-21.17C726 783.9 708.68 707 669 644.51z m-488.72 11a7.28 7.28 0 0 1 1.33-1.72s-0.61 0.77-1.36 1.68z m78.18-320.41a168.21 168.21 0 0 1 9.45-34.46 166.57 166.57 0 0 1 13-23.49c1.28-1.92 2.61-3.8 4-5.67l-1 1.16c0.43-0.51 0.85-1 1.26-1.55l0.26-0.36a28.35 28.35 0 0 1 2.13-2.54c3-3.51 6.08-6.91 9.33-10.16q5.53-5.53 11.57-10.52c0.14-0.12 0.34-0.31 0.55-0.52l0.59-0.43q3.15-2.33 6.41-4.5a166.12 166.12 0 0 1 23.5-13 168 168 0 0 1 34.45-9.45 171.39 171.39 0 0 1 36.37 0 168 168 0 0 1 34.42 9.39 166 166 0 0 1 23.49 13c1.92 1.28 3.81 2.61 5.67 4l-1.15-1c0.5 0.43 1 0.84 1.55 1.26l0.35 0.25a30.39 30.39 0 0 1 2.55 2.14c3.51 3 6.91 6.08 10.16 9.33a167 167 0 0 1 10.52 11.57c0.12 0.14 0.31 0.34 0.52 0.55s0.26 0.37 0.42 0.58c1.55 2.11 3.06 4.25 4.51 6.42a166.57 166.57 0 0 1 13 23.49 168.4 168.4 0 0 1 9.45 34.5 161.9 161.9 0 0 1 0 36.29 168.31 168.31 0 0 1-9.45 34.49 166 166 0 0 1-13 23.49c-1.28 1.92-2.61 3.81-4 5.67l1-1.16q-0.64 0.76-1.26 1.56c-0.09 0.11-0.17 0.23-0.26 0.35a30.91 30.91 0 0 1-2.13 2.55q-4.45 5.27-9.33 10.16a167 167 0 0 1-11.57 10.52c-0.15 0.12-0.34 0.31-0.56 0.52l-0.58 0.42c-2.1 1.55-4.24 3.06-6.42 4.51a166 166 0 0 1-23.49 13 168 168 0 0 1-34.45 9.45 170.07 170.07 0 0 1-36.37 0 168 168 0 0 1-34.45-9.45 166.06 166.06 0 0 1-23.5-13c-1.91-1.28-3.8-2.61-5.67-4l1.16 1c-0.51-0.43-1-0.85-1.55-1.26l-0.35-0.26a30.91 30.91 0 0 1-2.55-2.13c-3.51-3-6.91-6.08-10.16-9.33q-5.53-5.53-10.52-11.57c-0.12-0.15-0.31-0.34-0.52-0.56l-0.42-0.58q-2.34-3.15-4.51-6.42a166 166 0 0 1-13-23.49 167.86 167.86 0 0 1-9.45-34.46 171.29 171.29 0 0 1 0-36.34z m297 271.85a7.2 7.2 0 0 1 1.71 1.32s-0.85-0.65-1.75-1.36z" fill="#0071C3" p-id="1209"></path><path d="M714.11 224.11l-0.39-0.29c2.57 2.17 3.37 2.78 3.29 2.68l-1.4-1.19zM738.89 413.28l0.29-0.4a40.94 40.94 0 0 0-2.68 3.3l1.19-1.41c0.41-0.49 0.81-0.99 1.2-1.49zM843.67 633.2l-1.5-1.87c0.3 0.39 0.92 1.18 2 2.52l-0.12-0.17z" fill="#FD9A16" p-id="1210"></path><path d="M908.78 622.35c-38.13-60-94.29-105.35-160.3-131.35-1.26-0.49-2.54-1-3.8-1.43 32.36-23.24 56.56-55.72 70.5-93.25 15-40.28 15.2-87.54 0.9-128a199 199 0 0 0-80-101.58c-45.6-29.38-103.23-37.29-155.43-23.4-15.13 4-25.85 21.53-20.9 36.82 5 15.55 20.6 25.22 36.82 20.91 5.66-1.51 11.36-2.71 17.13-3.65a171.76 171.76 0 0 1 36.41 0 168 168 0 0 1 34.45 9.45 166.57 166.57 0 0 1 23.49 13c1.92 1.28 3.81 2.61 5.67 4l-1.16-1c0.51 0.43 1 0.84 1.55 1.26l0.36 0.25a29.72 29.72 0 0 1 2.53 2.12c3.51 3 6.91 6.08 10.16 9.33q5.54 5.53 10.52 11.57c0.13 0.14 0.31 0.34 0.52 0.55l0.43 0.58q2.33 3.16 4.5 6.42a166.57 166.57 0 0 1 13 23.49 168.21 168.21 0 0 1 9.45 34.46 171.29 171.29 0 0 1 0 36.36 168.21 168.21 0 0 1-9.45 34.46 166 166 0 0 1-13 23.49q-1.92 2.88-4 5.67c0.29-0.35 0.62-0.73 1-1.16-0.43 0.51-0.84 1-1.26 1.56l-0.25 0.35a32.21 32.21 0 0 1-2.14 2.55q-4.46 5.26-9.33 10.15-5.53 5.54-11.56 10.53c-0.15 0.12-0.35 0.31-0.56 0.52s-0.37 0.26-0.58 0.42q-3.16 2.32-6.42 4.5a165.57 165.57 0 0 1-23.49 13 167.86 167.86 0 0 1-34.44 9.45 171.67 171.67 0 0 1-36.82-0.05c-1-0.16-2-0.32-3-0.5-8.11-1.42-15.73-1.28-23.07 3-6.21 3.63-12.13 10.75-13.76 17.89-3.31 14.57 4.42 33.93 20.91 36.82 1.11 0.2 2.21 0.38 3.32 0.56 9.12 1.46 58.19 7.61 70.11 9A299.77 299.77 0 0 1 735.71 550a299.36 299.36 0 0 1 36.35 19q9.24 5.67 18 12c1.6 1.15 3.18 2.31 4.76 3.49 2.59 2.07 5.17 4.15 7.71 6.29a298.38 298.38 0 0 1 31.25 30.64q3.46 3.93 6.78 8l1.53 1.89c-0.8-1 0.56 0.65 1.5 1.87l0.25 0.32c0.55 0.68 1.08 1.37 1.62 2.06l-1.38-1.73q6.62 8.83 12.57 18.16A261.53 261.53 0 0 1 897 760.71a306.35 306.35 0 0 1-0.32 74.49c-0.89 7 4 16.39 8.77 21.17 5.19 5.19 13.71 9.1 21.16 8.77 7.75-0.35 15.78-2.89 21.17-8.77 5.74-6.25 7.71-12.82 8.77-21.17 9.28-73.44-8.06-150.37-47.77-212.85z m-113.56-37.6a7.28 7.28 0 0 1 1.72 1.32s-0.81-0.61-1.72-1.32z" fill="#FD9A16" p-id="1211"></path></svg>